<?xml version="1.0" standalone="no"?><!DOCTYPE svg PUBLIC "-//W3C//DTD SVG 1.1//EN" "http://www.w3.org/Graphics/SVG/1.1/DTD/svg11.dtd"><svg class="icon" width="128px" height="128.00px" viewBox="0 0 1024 1024" version="1.1" xmlns="http://www.w3.org/2000/svg"><path d="M765.947 182l0 16c12.069 0 22.82 6.266 28.759 16.76l114.877 203.069c9.306 16.452 3.44 37.752-13.068 47.477L291.363 821.22c-5.307 3.127-11.293 4.78-17.312 4.78-12.07 0-22.819-6.266-28.757-16.762L130.417 606.172c-9.304-16.45-3.436-37.751 13.071-47.477L748.635 202.78c5.307-3.127 11.293-4.78 17.311-4.78L765.947 182M765.945 182c-8.618 0-17.389 2.255-25.433 6.995L135.376 544.903c-24.024 14.156-32.48 45.111-18.886 69.146l114.879 203.068C240.413 833.105 256.931 842 274.051 842c8.618 0 17.391-2.256 25.434-6.995l605.14-355.908c24.024-14.152 32.479-45.111 18.883-69.146L808.631 206.882C799.585 190.897 783.065 182 765.945 182L765.945 182z" fill="#2c2c2c" /><path d="M247.029 598.989c5.982-3.558 10.191-6.339 14.858-10.229l8.219 13.82c-5.525 2.448-11.753 5.593-17.942 9.272l-13.615 8.097 24.655 41.464c8.804-9.144 11.575-12.467 24.934-28.508l7.772 12.132c-9.802 11.691-19.23 22.604-25.101 29.166l37.167 62.506c3.925 6.602 4.025 12.406 0.758 16.303-2.441 3.407-8.469 7.828-16.102 12.367-5.157 3.066-9.818 5.559-15.099 8.419-4.667-6.438-6.061-7.845-11.312-11.981 8.163-3.178 15.338-6.607 20.495-9.674 7.221-4.293 8.258-6.306 5.559-10.844l-32.751-55.08c-7.192 7.627-11.117 11.356-17.233 17.507-4.009 4.06-7.108 7.298-9.383 10.048l-11.927-13.014c8.625-5.688 18.828-14.825 30.815-27.537l-26.863-45.178-14.853 8.831c-6.396 3.803-11.018 6.83-16.716 11.335l-8.341-14.027c5.441-2.119 10.638-4.65 17.446-8.699l15.471-9.199-12.266-20.629c-4.661-7.839-9.328-14.279-13.833-19.978l16.297-9.69c2.854 6.68 6.49 13.733 11.028 21.366l12.389 20.835L247.029 598.989zM409.656 671.503c7.973 13.409 4.861 19.448-16.387 32.083-8.664 5.15-17.367 9.768-28.914 15.237-4.176-5.614-7.086-8.631-11.804-12.808 14.346-5.458 26.016-10.722 35.092-16.119 8.871-5.274 10.03-7.08 7.21-11.824l-80.835-135.947-41.465 24.654c-8.252 4.907-15.64 9.858-20.719 13.996l-8.709-14.647c5.441-2.118 13.32-6.245 22.396-11.642l69.108-41.093c8.87-5.274 16.258-10.226 20.924-14.117l8.71 14.647c-6.474 2.731-14.146 6.734-22.603 11.764l-13.822 8.219L409.656 671.503z" fill="#2c2c2c" /><path d="M422.402 570.383c-3.174-19.893-9.938-37.372-23.592-60.806l12.45-4.89c13.281 24.215 20.451 42.848 25.347 64.229L422.402 570.383zM518.145 600.852c-21.188-13.09-25.006-15.287-38.276-21.638 8.04 27.61 9.969 49.64 6.05 72.632-5.67-2.492-9.617-3.495-15.912-4.221 4.695-21.221 3.173-42.094-4.711-67.563-7.199-21.968-21.573-50.837-47.823-94.984-11.53-19.391-12.88-21.66-18.655-28.557l15.06-8.955c2.363 5.855 4.487 9.897 8.658 16.911 6.378 10.727 15.127 25.909 26.244 45.546 2.771-13.654 3.463-21.883 2.309-31.809l13.982 2.855c-1.756 17.24-4.068 29.784-8.691 43.143 10.538 20.54 10.538 20.54 17.63 38.103 5.464 2.615 10.929 5.23 16.928 7.807 13.024 5.938 16.476 7.515 32.578 15.811L518.145 600.852zM457.944 420.246c13.727 5.241 23.01 10.052 35.487 18.828l-8.898 12.271c-11.408-8.854-20.362-13.582-35.075-19.073L457.944 420.246zM487.84 468.646c-9.077 5.397-15.021 9.49-20.512 13.872l-8.464-14.234c6.268-2.61 12.494-5.754 21.159-10.906l42.083-25.023c1.037-22.676 0.491-30.168-3.184-48.089l16.721-2.403c1.037 18.65 1.088 26.718 0.078 42.396l15.266-9.077c8.458-5.03 16.671-10.471 21.834-14.938l8.587 14.44c-5.854 2.364-14.146 6.735-23.43 12.256l-30.943 18.399 17.418 29.293 24.343-14.475c9.283-5.52 16.052-10.103 21.338-14.363l8.341 14.028c-6.886 2.978-13.732 6.49-22.81 11.887l-24.343 14.475 19.013 31.976 33.214-19.75c10.314-6.133 18.32-11.452 23.193-15.466l8.71 14.646c-7.834 3.262-15.506 7.265-24.376 12.54l-33.627 19.994 16.561 27.85c5.642 9.489 10.348 16.464 15.428 22.658l-16.298 9.69c-3.017-7.421-7.265-15.505-12.538-24.376l-16.561-27.85-29.707 17.664c-8.25 4.906-14.4 9.121-21.42 14.691l-8.709-14.646c6.473-2.732 13.525-6.368 23.015-12.011l29.707-17.663-19.013-31.976-23.724 14.106c-9.283 5.52-15.021 9.491-21.132 14.241l-8.341-14.028c6.474-2.732 13.113-6.122 22.604-11.765l23.724-14.106-17.418-29.293L487.84 468.646z" fill="#2c2c2c" /><path d="M624.958 350.816c-9.489 5.642-16.465 10.348-24.31 16.408l-9.076-15.266c8.451-3.629 16.124-7.633 26.025-13.52l107.685-64.03c10.314-6.133 15.763-9.652 19.314-12.601l13.687 4.706c-3.055 12.707-4.643 18.957-7.102 26.562-8.046 25.447-16.805 44.058-33.168 70.541l55.443 93.244c4.17 7.014 4.806 12.779 1.823 17.625-2.03 3.162-7.025 6.969-17.547 13.225-7.426 4.416-14.272 7.929-28.953 14.704-3.847-5.531-6.39-7.929-11.475-12.724 14.14-5.336 24.449-10.07 34.97-16.326 6.602-3.925 7.845-6.061 5.76-9.567l-49.802-83.754c-5.151-8.665-8.67-14.111-13.175-19.81l12.171-7.237c13.878-22.214 22.392-41.237 30.363-69.153L624.958 350.816z" fill="#2c2c2c" /></svg>