<?xml version="1.0" standalone="no"?><!DOCTYPE svg PUBLIC "-//W3C//DTD SVG 1.1//EN" "http://www.w3.org/Graphics/SVG/1.1/DTD/svg11.dtd"><svg class="icon" width="48px" height="48.00px" viewBox="0 0 1024 1024" version="1.1" xmlns="http://www.w3.org/2000/svg"><path d="M512 1024L59.403315 792.044199V226.298343L517.657459 5.657459 964.596685 226.298343v565.745856l-452.596685 231.955801z m-396.022099-265.900552l396.022099 198.011049 396.022099-198.011049V260.243094L517.657459 67.889503 115.977901 260.243094v497.856354z" fill="#1296db" /><path d="M512 486.541436L76.375691 265.900552l22.629834-50.917127L512 424.309392l424.309392-192.353591 22.629835 50.917127z" fill="#1296db" /><path d="M483.712707 452.596685h56.574586v509.171271h-56.574586zM738.298343 554.430939c-16.972376 0-28.287293-11.314917-28.287293-28.287293v-169.723756L336.618785 158.40884c-11.314917-5.657459-16.972376-22.629834-11.314918-39.60221 5.657459-11.314917 22.629834-16.972376 39.60221-11.314917l407.337017 214.983425v203.668508c-5.657459 16.972376-16.972376 28.287293-33.944751 28.287293z" fill="#1296db" /></svg>