<?xml version="1.0" standalone="no"?><!DOCTYPE svg PUBLIC "-//W3C//DTD SVG 1.1//EN" "http://www.w3.org/Graphics/SVG/1.1/DTD/svg11.dtd"><svg class="icon" width="64px" height="64.00px" viewBox="0 0 1024 1024" version="1.1" xmlns="http://www.w3.org/2000/svg"><path d="M682.24 336l-180.88 86.12L76.72 212.2l221.4-106.8a28.4 28.4 0 0 0 10.28 9.68l373.84 207.24z m56.96 35.56l228-108.24V792l-455.84 230.8V479.64l170.88-81.12v137.12a28.48 28.48 0 1 0 56.96 0zM357.08 76.96L515.16 0.68l429.12 210.48-195.8 93.2a28.48 28.48 0 0 0-13.88-18.24L357.08 77zM55.64 264l398.76 197.32v532.88L55.64 792z m0 0"  /></svg>