<?xml version="1.0" standalone="no"?><!DOCTYPE svg PUBLIC "-//W3C//DTD SVG 1.1//EN" "http://www.w3.org/Graphics/SVG/1.1/DTD/svg11.dtd"><svg class="icon" width="128px" height="49.04px" viewBox="0 0 2673 1024" version="1.1" xmlns="http://www.w3.org/2000/svg"><path d="M2609.627475 0H63.902788A63.876426 63.876426 0 0 0 0 63.876426v896.326236a63.902788 63.902788 0 0 0 63.902788 63.71825H2609.627475a63.902788 63.902788 0 0 0 63.902788-63.902788v-896.326236A63.876426 63.876426 0 0 0 2609.627475 0z m19.455552 916.862652a63.876426 63.876426 0 0 1-63.876426 63.876426h-2456.988389a63.876426 63.876426 0 0 1-63.876426-63.876426V107.110985A63.876426 63.876426 0 0 1 108.323662 43.23456h2456.988389a63.876426 63.876426 0 0 1 63.876426 63.876425z" fill="#2c2c2c" /><path d="M963.998867 208.791288v53.779574h-178.737996v56.152203h-57.733955V262.570862h-222.236182v56.152203h-57.733954V262.570862h-173.99274V208.791288h173.99274V143.939449h57.733954v64.851839h222.236182V143.939449h57.733955v64.851839zM296.499446 340.076719h650.100147v153.429962h-56.943078V387.529285h-538.586618v105.977396h-54.570451z m62.479212 303.696419h532.259609v223.027058h-57.733955V838.328656h-418.373452v30.053292h-56.152202z m472.943902-204.836908v155.011714h-417.582576v-155.011714z m-416.7917 256.243854v93.323379h418.373452v-93.323379z m359.057745-213.536545h-304.487295v69.597096h304.487295zM1716.12203 766.358932v57.733955h-691.225704v-57.733955h219.863554V153.429962h58.52483v612.92897h133.65806V154.220838h58.52483v612.138094z m-567.058157-148.684705c-18.981026-69.597096-66.433592-188.22851-107.559149-277.597508l54.57045-16.608398c41.916433 87.787246 90.159874 203.255155 111.513529 272.061375z m551.240635-265.734367c-37.962052 90.159874-90.95075 199.300775-136.030688 272.061376l-48.243441-26.098911c43.498185-71.178848 100.441264-185.065005 131.285431-272.061376zM2436.610149 283.924517v370.13001h-60.106583V608.97459h-226.981438v256.243853h-60.897459V608.97459h-226.190562v49.034318h-57.733955V283.924517h283.924517V143.148572h60.897459v140.775945z m-347.98548 267.316118v-209.582164h-226.190562v209.582164z m287.878897 0v-209.582164h-226.981438v209.582164z" fill="#2c2c2c" /></svg>