<?xml version="1.0" standalone="no"?><!DOCTYPE svg PUBLIC "-//W3C//DTD SVG 1.1//EN" "http://www.w3.org/Graphics/SVG/1.1/DTD/svg11.dtd"><svg class="icon" width="128px" height="56.89px" viewBox="0 0 2304 1024" version="1.1" xmlns="http://www.w3.org/2000/svg"><path d="M64 32a32 32 0 0 0-32 32v896a32 32 0 0 0 32 32h2176a32 32 0 0 0 32-32V64a32 32 0 0 0-32-32H64z m0-32h2176a64 64 0 0 1 64 64v896a64 64 0 0 1-64 64H64a64 64 0 0 1-64-64V64a64 64 0 0 1 64-64z" fill="#ffffff" /><path d="M353.92 446.72h318.72v129.92h-318.72v-129.92z m275.84 94.72v-58.88H396.8v58.88h232.96z m103.68 78.72v180.48h-44.16v-26.24H341.76v26.24h-44.8v-180.48h436.48z m-391.68 115.2h347.52v-76.8H341.76v76.8zM236.8 257.28h144V214.4h46.08v42.88h170.24V214.4h46.08v42.88h144V297.6h-144v37.76h-46.08V297.6h-170.24v37.76H380.8V297.6H236.8V257.28z m532.48 104.96v119.68h-44.16v-80.64H298.88v83.84H254.72v-122.88h514.56z m289.92-142.72h46.72v508.8h90.88V219.52h46.72v508.8h192v44.8H868.48v-44.8h190.72V219.52z m318.08 116.48l40.96 11.52c-25.6 111.36-57.6 208.64-96.64 292.48l-41.6-14.72c37.12-75.52 69.76-172.16 97.28-289.28z m-453.76-1.28c33.28 86.4 63.36 185.6 89.6 297.6l-42.24 10.88c-23.04-102.4-51.84-200.96-86.4-295.68l39.04-12.8z m844.8-124.16h47.36v115.2h229.76v300.8h-46.08v-40.32h-183.68v218.24h-47.36v-218.24h-183.04v40.32H1539.2v-300.8h229.12v-115.2z m-183.04 330.88h183.04v-170.88h-183.04v170.88z m230.4 0h183.68v-170.88h-183.68v170.88z" fill="#ffffff" /></svg>